<svg width="349" height="351" viewBox="0 0 349 351" fill="none" xmlns="http://www.w3.org/2000/svg">
<path d="M230.835 47.4824H169.109V138.794H230.835V47.4824Z" fill="#A32926"/>
<path d="M151.026 47.4824H169.109V138.794H128.567V69.9408C128.567 63.9845 130.933 58.2721 135.145 54.0603C139.357 49.8486 145.069 47.4824 151.026 47.4824Z" fill="#A32926"/>
<path d="M147.743 120.897C152.691 120.897 156.703 116.513 156.703 111.104C156.703 105.696 152.691 101.312 147.743 101.312C142.794 101.312 138.782 105.696 138.782 111.104C138.782 116.513 142.794 120.897 147.743 120.897Z" fill="#F4E6D8"/>
<path d="M160.344 111.316H135.141C135.14 113.82 135.885 116.266 137.281 118.344C138.677 120.422 140.66 122.036 142.978 122.982V126.169H152.508V122.982C154.825 122.036 156.809 120.422 158.204 118.344C159.6 116.266 160.345 113.82 160.344 111.316Z" fill="#4756DF"/>
<path d="M128.101 86.8534L168.341 70.5186" stroke="#4756DF" stroke-width="4" stroke-miterlimit="10" stroke-linecap="round"/>
<path d="M168.38 47.4824V138.794" stroke="#4756DF" stroke-width="4" stroke-miterlimit="10"/>
<path d="M395.196 287.083V252.023L374.012 230.473H314.478L293.294 252.023V284.529H219.15V271.011C195.409 268.453 202.711 250.923 189.564 250.923H166.189C164.485 250.917 162.816 251.401 161.38 252.318L128.38 231.923H94.4153L51.865 258.218H51.9567V291.326L23.3787 308.987V339.303H416.379V308.625L395.196 287.083Z" fill="#F5EBDD"/>
<path d="M106.774 185.922C117.93 182.468 132.272 177.504 175.918 213.197C219.564 248.891 236.078 225.548 231.612 220.154C228.027 215.811 208.002 227.528 222.907 243.325C237.07 258.345 278.581 243.979 289.964 234.783C306.163 221.7 329.354 211.409 349.797 210.668" stroke="#5D5A6F" stroke-width="4" stroke-linecap="round" stroke-linejoin="round" stroke-dasharray="12 12"/>
<path d="M136.97 258.226L94.4155 231.931" stroke="#5D5A6F" stroke-width="4" stroke-linecap="round" stroke-linejoin="round"/>
<path d="M52.3552 258.226H137.061V338.912" stroke="#5D5A6F" stroke-width="4" stroke-linecap="round" stroke-linejoin="round"/>
<path d="M50.8611 339.064L51.2595 291.725" stroke="#5D5A6F" stroke-width="4" stroke-linecap="round" stroke-linejoin="round"/>
<path d="M23.7771 308.995H50.7694" stroke="#5D5A6F" stroke-width="4" stroke-linecap="round" stroke-linejoin="round"/>
<path d="M51.3193 303.334H136.42" stroke="#5D5A6F" stroke-width="4" stroke-linecap="round" stroke-linejoin="round"/>
<path d="M292.378 315.39H352.646" stroke="#5D5A6F" stroke-width="4" stroke-linecap="round" stroke-linejoin="round"/>
<path d="M136.97 258.226H156.827" stroke="#5D5A6F" stroke-width="4" stroke-linecap="round" stroke-linejoin="round"/>
<path d="M293.693 252.019H352.829V338.912" stroke="#5D5A6F" stroke-width="4" stroke-linecap="round" stroke-linejoin="round"/>
<path d="M196.138 271.74H218.752" stroke="#5D5A6F" stroke-width="4" stroke-linecap="round" stroke-linejoin="round"/>
<path d="M166.635 251.652C153.488 251.652 160.791 269.182 137.049 271.74H196.229C172.476 269.186 179.783 251.652 166.635 251.652Z" stroke="#5D5A6F" stroke-width="4" stroke-linecap="round" stroke-linejoin="round"/>
<path d="M137.049 338.514V271.744H196.217V338.912" stroke="#5D5A6F" stroke-width="4" stroke-linecap="round" stroke-linejoin="round"/>
<path d="M196.138 338.513V291.099H292.382V338.912" stroke="#5D5A6F" stroke-width="4" stroke-linecap="round" stroke-linejoin="round"/>
<path d="M196.309 290.206L218.54 283.792" stroke="#5D5A6F" stroke-width="4" stroke-linecap="round" stroke-linejoin="round"/>
<path d="M292.382 284.924V291.099H196.138" stroke="#5D5A6F" stroke-width="4" stroke-linecap="round" stroke-linejoin="round"/>
<path d="M215.257 302.06H215.353C217.082 302.06 218.74 302.746 219.962 303.969C221.184 305.191 221.871 306.849 221.871 308.578V339.315H208.723V308.578C208.723 307.72 208.893 306.871 209.221 306.08C209.55 305.288 210.031 304.568 210.638 303.963C211.245 303.358 211.965 302.878 212.758 302.551C213.551 302.225 214.4 302.057 215.257 302.06Z" fill="#5D5A6F"/>
<path d="M274.063 302.06H274.174C275.903 302.06 277.561 302.746 278.783 303.969C280.006 305.191 280.692 306.849 280.692 308.578V339.315H267.545V308.578C267.545 306.849 268.232 305.191 269.454 303.969C270.676 302.746 272.334 302.06 274.063 302.06Z" fill="#5D5A6F"/>
<path d="M244.66 302.06H244.772C246.5 302.06 248.158 302.746 249.381 303.969C250.603 305.191 251.29 306.849 251.29 308.578V339.315H238.142V308.578C238.142 306.849 238.829 305.191 240.051 303.969C241.274 302.746 242.931 302.06 244.66 302.06Z" fill="#5D5A6F"/>
<path d="M69.435 317.031H69.5346C71.2633 317.031 72.9212 317.718 74.1435 318.94C75.3659 320.163 76.0526 321.821 76.0526 323.549V339.31H62.905V323.549C62.905 322.693 63.0736 321.846 63.4012 321.055C63.7287 320.264 64.2089 319.546 64.8141 318.94C65.4194 318.335 66.1379 317.855 66.9287 317.527C67.7195 317.2 68.5671 317.031 69.423 317.031H69.435Z" fill="#5D5A6F"/>
<path d="M119.471 317.031H119.583C120.44 317.03 121.288 317.198 122.08 317.525C122.872 317.852 123.591 318.332 124.197 318.938C124.803 319.543 125.284 320.262 125.612 321.053C125.94 321.844 126.109 322.693 126.109 323.549V339.31H112.961V323.549C112.961 321.822 113.647 320.165 114.868 318.943C116.088 317.721 117.744 317.033 119.471 317.031Z" fill="#5D5A6F"/>
<path d="M94.4514 317.031H94.5629C96.2916 317.031 97.9495 317.718 99.1718 318.94C100.394 320.163 101.081 321.821 101.081 323.549V339.31H87.9333V323.549C87.9333 321.821 88.6201 320.163 89.8424 318.94C91.0648 317.718 92.7227 317.031 94.4514 317.031Z" fill="#5D5A6F"/>
<path d="M76.0606 269.915H62.9131V292.194H76.0606V269.915Z" fill="#5D5A6F"/>
<path d="M126.101 269.915H112.953V292.194H126.101V269.915Z" fill="#5D5A6F"/>
<path d="M101.081 269.915H87.9333V292.194H101.081V269.915Z" fill="#5D5A6F"/>
<path d="M161.699 283.062H150.775V299.497H161.699V283.062Z" fill="#5D5A6F"/>
<path d="M182.488 283.062H171.564V299.497H182.488V283.062Z" fill="#5D5A6F"/>
<path d="M161.699 311.92H150.775V328.354H161.699V311.92Z" fill="#5D5A6F"/>
<path d="M182.488 311.92H171.564V328.354H182.488V311.92Z" fill="#5D5A6F"/>
<path d="M317.661 261.15H306.737V277.585H317.661V261.15Z" fill="#5D5A6F"/>
<path d="M338.45 261.15H327.526V277.585H338.45V261.15Z" fill="#5D5A6F"/>
<path d="M317.661 290.003H306.737V306.437H317.661V290.003Z" fill="#5D5A6F"/>
<path d="M338.45 290.003H327.526V306.437H338.45V290.003Z" fill="#5D5A6F"/>
<path d="M108.846 165.273C108.846 173.492 100.081 182.987 96.6068 182.987C93.1326 182.987 84.3716 173.492 84.3716 165.273C84.4295 162.066 85.7442 159.01 88.0328 156.762C90.3214 154.514 93.401 153.255 96.6088 153.255C99.8166 153.255 102.896 154.514 105.185 156.762C107.473 159.01 108.788 162.066 108.846 165.273Z" fill="#5D5A6F"/>
<path d="M96.6067 169.11C98.7257 169.11 100.443 167.392 100.443 165.273C100.443 163.154 98.7257 161.437 96.6067 161.437C94.4878 161.437 92.77 163.154 92.77 165.273C92.77 167.392 94.4878 169.11 96.6067 169.11Z" fill="white"/>
<path d="M11.9802 339.31H34.9924C34.9924 332.96 29.841 326.529 23.4863 326.529C17.1317 326.529 11.9802 332.96 11.9802 339.31Z" fill="#5D5A6F"/>
<path d="M0 339.311H17.0958C17.0958 334.593 13.2671 329.816 8.5499 329.816C3.83271 329.816 0 334.593 0 339.311Z" fill="#5D5A6F"/>
<path d="M208.496 113.148C180.142 130.483 170.281 178.771 164.273 196.388C157.775 215.44 143.464 215.006 126.858 220.552C110.252 226.098 110.87 238.19 110.87 238.19C106.989 240.834 103.28 243.723 99.7661 246.839L120.79 273.708C125.75 270.286 133.113 265.995 143.213 259.895C164.074 247.293 182.747 235.461 194.799 222.313C206.851 209.165 238.525 151.515 238.525 151.515L208.496 113.148Z" fill="#4856DF"/>
<path d="M120.79 273.709L99.762 246.844C90.3595 255.21 84.726 263.179 81.8933 267.816L111.539 305.689C115.714 298.119 112.396 287.466 112.734 282.816C112.961 280.015 115.503 277.358 120.79 273.709Z" fill="#30242A"/>
<path d="M79.5906 271.991L108.738 309.23C109.86 308.216 110.803 307.02 111.527 305.692L81.8854 267.819C81.0458 269.167 80.2797 270.56 79.5906 271.991Z" fill="#A32926"/>
<path d="M110.009 275.302L115.655 278.445" stroke="white" stroke-width="4" stroke-linecap="round" stroke-linejoin="round"/>
<path d="M107.495 280.983L113.153 282.266" stroke="white" stroke-width="4" stroke-linecap="round" stroke-linejoin="round"/>
<path d="M117.591 248.896L107.519 256.768" stroke="#A32926" stroke-width="4" stroke-miterlimit="10" stroke-linecap="round"/>
<path d="M112.491 242.373L102.419 250.246" stroke="#A32926" stroke-width="4" stroke-miterlimit="10" stroke-linecap="round"/>
<path d="M122.691 255.417L112.619 263.29" stroke="#A32926" stroke-width="4" stroke-miterlimit="10" stroke-linecap="round"/>
<path d="M127.79 261.939L117.719 269.812" stroke="#A32926" stroke-width="4" stroke-miterlimit="10" stroke-linecap="round"/>
<path d="M109.958 238.536L132.057 266.807" stroke="#A32926" stroke-width="4" stroke-miterlimit="10" stroke-linecap="round"/>
<path d="M217.273 188.241C212.473 180.671 207.775 172.304 204.206 163.671" stroke="#30242A" stroke-width="4" stroke-linecap="round" stroke-linejoin="round"/>
<path d="M225.174 6.94032C227.09 6.94032 228.644 5.38668 228.644 3.47016C228.644 1.55365 227.09 0 225.174 0C223.257 0 221.704 1.55365 221.704 3.47016C221.704 5.38668 223.257 6.94032 225.174 6.94032Z" fill="#4756DF"/>
<path d="M236.19 54.0568L235.951 50.0249C240.592 50.6066 244.031 49.9173 246.489 48.6583L235.951 40.1762C235.951 40.1762 239.6 38.718 237.409 31.0446L249.138 26.7816C248.521 25.1879 248.11 21.3473 246.927 17.2197L239.943 20.2596C238.312 23.3886 235.974 26.0938 233.114 28.1601C231.933 26.9382 230.613 25.8578 229.182 24.9409C228.991 24.8174 228.783 24.7019 228.592 24.5863H228.572C228.377 24.4748 228.174 24.3672 227.979 24.2636H227.947C227.748 24.164 227.548 24.0644 227.345 23.9768L227.305 23.9051C227.11 23.8134 226.907 23.7337 226.704 23.6541H226.648C226.445 23.5823 226.25 23.5146 226.042 23.4509H225.975C225.775 23.3911 225.576 23.3393 225.369 23.2955H225.297C225.094 23.2517 224.899 23.2198 224.692 23.1959H224.612C224.413 23.176 224.214 23.164 224.01 23.16C222.269 23.1361 220.544 23.8453 219.106 25.8573C218.247 27.0238 217.781 28.4328 217.775 29.8812C217.803 34.1641 221.787 38.2479 225.345 39.4431C222.532 45.3754 213.445 49.0767 209.958 50.3077C210.07 51.6663 210.178 52.9293 210.273 54.0568H236.19Z" fill="#EAA58B"/>
<path d="M307.083 78.5263C305.434 78.5263 304.637 77.1876 305.302 75.5382L310.88 61.7652L310.836 61.7253L310.932 61.6337C312.474 60.185 313.909 58.6272 315.227 56.9723C317.745 53.7651 318.502 51.4344 317.617 50.4822C317.364 50.2264 317.028 50.0684 316.669 50.0359C316.304 49.9918 315.935 50.0134 315.577 50.0997C312.733 50.7212 307.86 54.5977 302.43 60.9922C295.86 68.7174 283.083 84.0044 283.083 84.0044C281.752 82.9885 279.82 81.2674 277.505 79.1916L259.123 102.825C263.062 105.892 267.267 108.6 271.688 110.917C272.523 108.335 274.115 106.064 276.257 104.399C278.4 102.735 280.994 101.754 283.703 101.584C286.411 101.414 289.107 102.063 291.441 103.447C293.775 104.831 295.638 106.886 296.788 109.343C307.864 101.068 316.613 86.3033 320.713 78.5263H307.083Z" fill="#EAA58B"/>
<path d="M246.178 59.168H240.561C251.274 65.6222 246.537 77.7977 246.537 77.7977C246.537 77.7977 261.17 88.0249 251.29 100.443C252.015 99.6805 252.629 98.8195 253.114 97.8855C253.114 97.8855 255.473 100.053 259.091 102.826L277.473 79.1921C268.935 71.5745 255.075 59.168 246.178 59.168Z" fill="#5D5A6F"/>
<path d="M189.93 78.8855C189.93 78.8855 179.173 87.8537 186.444 99.8618L190.273 78.3477L189.93 78.8855Z" fill="#FF7235"/>
<path d="M210.257 54.0566V54.1881L210.719 54.0566H210.257Z" fill="#FF7235"/>
<path d="M225.313 39.4427C221.771 38.2475 217.787 34.1757 217.744 29.8809L208.616 33.865C208.971 38.8929 209.485 45.2316 209.911 50.3074C213.429 49.0763 222.524 45.3751 225.313 39.4427Z" fill="#30242A"/>
<path d="M235.951 40.1756L246.489 48.6578C248.576 47.6518 250.23 45.9257 251.146 43.7971C252.7 39.9087 251.696 36.562 250.485 32.2193C250.485 32.2193 253.573 30.1516 253.091 28.2352C252.692 26.6774 249.174 26.8926 249.174 26.8926L249.138 26.793L237.409 31.056C239.6 38.7174 235.951 40.1756 235.951 40.1756Z" fill="#30242A"/>
<path d="M233.114 28.1515C235.974 26.0852 238.312 23.3799 239.943 20.251L229.186 24.9323C230.616 25.8495 231.934 26.9298 233.114 28.1515Z" fill="#30242A"/>
<path d="M227.345 23.9402L227.305 23.9043L227.345 23.9402Z" fill="#4756DF"/>
<path d="M219.098 25.817C220.536 23.805 222.261 23.0959 224.002 23.1198H223.963C222.963 12.0639 225.429 6.05184 227.257 3.19922C225.504 3.45817 223.773 3.84974 222.078 4.37055C209.405 8.20724 207.95 20.7054 208.305 28.1397C208.373 29.6298 208.5 31.6139 208.656 33.853L217.783 29.8688C217.779 28.4127 218.239 26.9931 219.098 25.817Z" fill="#4756DF"/>
<path d="M228.572 24.5659C228.377 24.4543 228.174 24.3468 227.979 24.2432C228.182 24.3468 228.377 24.4543 228.572 24.5659Z" fill="#A32926"/>
<path d="M229.182 24.9327C228.991 24.8092 228.784 24.6937 228.592 24.5781C228.791 24.7016 228.991 24.8092 229.182 24.9327Z" fill="#A32926"/>
<path d="M225.967 23.4308C225.767 23.371 225.568 23.3192 225.361 23.2754C225.564 23.3192 225.767 23.371 225.967 23.4308Z" fill="#A32926"/>
<path d="M227.947 24.2273C227.748 24.1277 227.548 24.0281 227.345 23.9404C227.548 24.0281 227.748 24.1277 227.947 24.2273Z" fill="#A32926"/>
<path d="M224.604 23.1559C224.405 23.136 224.206 23.124 224.002 23.1201C224.202 23.1081 224.405 23.136 224.604 23.1559Z" fill="#A32926"/>
<path d="M225.289 23.2637C225.086 23.2198 224.891 23.188 224.684 23.1641C224.887 23.188 225.086 23.2198 225.289 23.2637Z" fill="#A32926"/>
<path d="M226.64 23.6495C226.437 23.5778 226.242 23.51 226.034 23.4463C226.238 23.5061 226.437 23.5778 226.64 23.6495Z" fill="#A32926"/>
<path d="M227.305 23.9043C227.11 23.8127 226.907 23.733 226.704 23.6533C226.907 23.7489 227.102 23.8286 227.305 23.9043Z" fill="#A32926"/>
<path d="M223.963 23.1075H224.003C224.202 23.1075 224.401 23.1075 224.604 23.1434H224.684C224.887 23.1673 225.082 23.1992 225.29 23.243H225.361C225.564 23.2868 225.76 23.3386 225.967 23.3984H226.035C226.238 23.4621 226.433 23.5298 226.64 23.6016H226.696C226.899 23.6812 227.094 23.7609 227.298 23.8525L227.345 23.8725C227.549 23.9601 227.744 24.0597 227.947 24.1593H227.979C228.182 24.2629 228.377 24.3705 228.572 24.482H228.592C228.792 24.5976 228.991 24.7131 229.182 24.8366L239.939 20.1553L246.923 17.1154C244.792 9.68108 240.15 1.28258 227.254 3.11527C225.429 6.04757 222.963 12.0596 223.963 23.1075Z" fill="#A32926"/>
<path d="M284.525 101.539C281.664 101.54 278.877 102.448 276.566 104.134C274.254 105.819 272.536 108.194 271.66 110.918C277.525 113.898 283.728 115.73 288.545 113.958C291.496 112.822 294.268 111.268 296.776 109.344C295.69 107.011 293.959 105.038 291.789 103.655C289.619 102.272 287.098 101.538 284.525 101.539Z" fill="#CA7358"/>
<path d="M248.023 124.002C261.17 115.416 252.007 100.798 251.29 100.444C261.15 88.0252 246.541 77.7979 246.541 77.7979C246.541 77.7979 251.274 65.6225 240.564 59.1683H236.493L236.19 54.0566H210.731L210.269 54.1881L210.7 59.1683H202.484L190.273 78.3517L186.444 99.8659L186.639 100.189C186.509 100.43 186.377 100.673 186.241 100.918C183.771 105.778 183.408 109.914 184.042 113.268C185.361 120.284 191.01 123.982 191.01 123.982H248.023V124.002Z" fill="#FF7235"/>
<path d="M191.026 130.403H248.003V125.28V124.001H191.026V125.28V130.403Z" fill="#30242A"/>
<path d="M185.074 77.7979H246.541" stroke="#A15842" stroke-width="4" stroke-miterlimit="10" stroke-linecap="round"/>
<path d="M186.54 100.443H251.609" stroke="#A15842" stroke-width="4" stroke-miterlimit="10" stroke-linecap="round"/>
<path d="M237.409 61.7258L237.274 59.5664" stroke="#A15842" stroke-width="4" stroke-miterlimit="10" stroke-linecap="round"/>
<path d="M230.469 60.6298L230.106 54.7852" stroke="#A15842" stroke-width="4" stroke-miterlimit="10" stroke-linecap="round"/>
<path d="M224.991 60.6298L224.628 54.7852" stroke="#A15842" stroke-width="4" stroke-miterlimit="10" stroke-linecap="round"/>
<path d="M219.512 60.6298L219.15 54.7852" stroke="#A15842" stroke-width="4" stroke-miterlimit="10" stroke-linecap="round"/>
<path d="M282.318 83.6982L277.951 89.1206" stroke="#A15842" stroke-width="4" stroke-linecap="round" stroke-linejoin="round"/>
<path d="M230.835 49.6738C232.45 50.2387 234.123 50.6222 235.823 50.8173" stroke="#A15842" stroke-width="4" stroke-miterlimit="10" stroke-linecap="round"/>
<path d="M315.227 56.9728C315.246 58.0445 316.023 58.8015 317.247 58.8015H329.163C330.812 58.8015 332.693 57.4628 333.362 55.8094L336.996 46.8133C337.661 45.1639 336.864 43.8252 335.215 43.8252H323.294C321.645 43.8252 319.764 45.1639 319.099 46.8133L317.617 50.4826C318.501 51.4388 317.745 53.7855 315.227 56.9728Z" fill="#F5EBDD"/>
<path d="M339.765 37.9844H336.546L336.263 38.6816C336.039 39.2006 335.678 39.6484 335.218 39.9764C334.758 40.3045 334.217 40.5001 333.653 40.5422H327.51C326.486 40.5422 325.988 39.7095 326.402 38.6816L326.685 37.9844H323.466C321.812 37.9844 319.936 39.323 319.266 40.9764L315.577 50.104C315.934 50.0178 316.304 49.9962 316.669 50.0403C317.028 50.0728 317.363 50.2308 317.617 50.4865L319.099 46.8172C319.765 45.1677 321.645 43.8291 323.294 43.8291H335.215C336.864 43.8291 337.661 45.1677 336.996 46.8172L333.362 55.8133C332.693 57.4667 330.812 58.8053 329.163 58.8053H317.247C316.007 58.8053 315.254 58.0484 315.227 56.9766C313.905 58.6306 312.465 60.1871 310.92 61.6341L310.868 61.7655L305.29 75.5386C304.625 77.188 305.422 78.5267 307.071 78.5267H323.374C325.024 78.5267 326.904 77.188 327.569 75.5386L341.514 40.9764C342.215 39.323 341.418 37.9844 339.765 37.9844ZM323.828 73.0445C323.611 73.5491 323.26 73.9845 322.812 74.3035C322.368 74.6483 321.828 74.8461 321.267 74.8693H312.167C311.155 74.8693 310.669 74.0525 311.075 73.0445C311.296 72.5357 311.652 72.0968 312.104 71.7752C312.556 71.4537 313.088 71.2616 313.641 71.2198H322.773C323.761 71.2238 324.247 72.0405 323.84 73.0485L323.828 73.0445Z" fill="#4756DF"/>
<path d="M322.753 71.2236H313.621C313.068 71.2654 312.537 71.4575 312.084 71.779C311.632 72.1006 311.277 72.5395 311.055 73.0484C310.657 74.0563 311.135 74.8731 312.147 74.8731H321.279C321.84 74.8499 322.381 74.6522 322.824 74.3073C323.272 73.9883 323.623 73.5529 323.84 73.0484C324.247 72.0404 323.761 71.2236 322.753 71.2236Z" fill="#A32926"/>
<path d="M327.51 40.5422H333.653C334.217 40.5001 334.758 40.3045 335.218 39.9764C335.678 39.6484 336.039 39.2006 336.263 38.6816L336.546 37.9844H326.685L326.402 38.6816C325.988 39.7095 326.486 40.5422 327.51 40.5422Z" fill="#A32926"/>
<path d="M256.039 13.8809L231.568 24.8372" stroke="#30242A" stroke-width="4" stroke-linecap="round" stroke-linejoin="round"/>
<path d="M248.178 36.7338C247.445 36.929 245.047 36.5266 244.652 34.4668" stroke="black" stroke-width="4" stroke-miterlimit="10" stroke-linecap="round"/>
<path d="M244.405 26.3146C245.056 26.3146 245.584 25.7867 245.584 25.1353C245.584 24.484 245.056 23.9561 244.405 23.9561C243.754 23.9561 243.226 24.484 243.226 25.1353C243.226 25.7867 243.754 26.3146 244.405 26.3146Z" fill="#30242A"/>
<path d="M224.162 30.4863L228.445 33.2115" stroke="#A15842" stroke-width="4" stroke-miterlimit="10" stroke-linecap="round"/>
<path d="M233.393 27.3945L238.142 31.044" stroke="#30242A" stroke-width="4" stroke-linecap="round" stroke-linejoin="round"/>
<path d="M224.261 39.8135L237.046 40.176" stroke="#30242A" stroke-width="4" stroke-linecap="round" stroke-linejoin="round"/>
<path d="M273.919 125.28C275.372 125.28 276.766 125.857 277.793 126.885C278.82 127.912 279.398 129.306 279.398 130.758V130.758C279.4 131.479 279.26 132.194 278.985 132.86C278.711 133.527 278.308 134.133 277.799 134.644C277.29 135.154 276.686 135.56 276.02 135.837C275.354 136.113 274.64 136.256 273.919 136.256" stroke="#FF7235" stroke-width="4" stroke-miterlimit="10"/>
<path d="M281.605 125.28C283.055 125.284 284.444 125.864 285.468 126.89C286.492 127.917 287.067 129.308 287.067 130.758C287.071 132.212 286.498 133.607 285.474 134.638C284.45 135.669 283.058 136.251 281.605 136.256" stroke="#FF7235" stroke-width="4" stroke-miterlimit="10"/>
<path d="M321.091 126.01H260.748C258.147 126.01 256.039 128.118 256.039 130.719V130.799C256.039 133.399 258.147 135.508 260.748 135.508H321.091C323.692 135.508 325.801 133.399 325.801 130.799V130.719C325.801 128.118 323.692 126.01 321.091 126.01Z" fill="#30242A"/>
<path d="M331.212 328.453L294.866 126.249L285.517 127.929L321.863 330.133L331.212 328.453Z" fill="#30242A"/>
<path d="M260.828 126.01H260.748C258.147 126.01 256.039 128.118 256.039 130.719V130.799C256.039 133.399 258.147 135.508 260.748 135.508H260.828C263.429 135.508 265.537 133.399 265.537 130.799V130.719C265.537 128.118 263.429 126.01 260.828 126.01Z" stroke="#FF7235" stroke-width="4" stroke-miterlimit="10"/>
<path d="M306.414 125.579C307.489 125.953 308.422 126.653 309.081 127.581C309.741 128.509 310.095 129.62 310.095 130.758V130.758C310.095 131.823 309.785 132.864 309.202 133.755C308.62 134.645 307.791 135.347 306.816 135.774" stroke="#FF7235" stroke-width="4" stroke-miterlimit="10" stroke-linecap="round"/>
<path d="M312.788 125.579C313.864 125.953 314.796 126.653 315.456 127.581C316.116 128.509 316.47 129.62 316.47 130.758V130.758C316.469 131.823 316.159 132.864 315.577 133.755C314.995 134.645 314.165 135.347 313.191 135.774" stroke="#FF7235" stroke-width="4" stroke-miterlimit="10" stroke-linecap="round"/>
<path d="M326.53 329.816H193.217V339.315H326.53V329.816Z" fill="#30242A"/>
<path d="M201.433 351C207.888 351 213.122 345.766 213.122 339.31C213.122 332.855 207.888 327.621 201.433 327.621C194.977 327.621 189.743 332.855 189.743 339.31C189.743 345.766 194.977 351 201.433 351Z" fill="#30242A"/>
<path d="M201.433 343.693C203.853 343.693 205.815 341.731 205.815 339.31C205.815 336.89 203.853 334.928 201.433 334.928C199.012 334.928 197.05 336.89 197.05 339.31C197.05 341.731 199.012 343.693 201.433 343.693Z" fill="#5D5A6F"/>
<path d="M328.601 351C335.057 351 340.291 345.766 340.291 339.31C340.291 332.855 335.057 327.621 328.601 327.621C322.145 327.621 316.912 332.855 316.912 339.31C316.912 345.766 322.145 351 328.601 351Z" fill="#30242A"/>
<path d="M328.601 343.693C331.022 343.693 332.984 341.731 332.984 339.31C332.984 336.89 331.022 334.928 328.601 334.928C326.181 334.928 324.219 336.89 324.219 339.31C324.219 341.731 326.181 343.693 328.601 343.693Z" fill="#5D5A6F"/>
<path d="M219.696 339.311H183.173C183.244 334.514 185.199 329.938 188.616 326.572C192.033 323.205 196.638 321.317 201.435 321.317C206.231 321.317 210.836 323.205 214.253 326.572C217.67 329.938 219.625 334.514 219.696 339.311Z" fill="#FF7235"/>
<path d="M346.86 339.311H310.338C310.409 334.514 312.364 329.938 315.781 326.572C319.198 323.205 323.802 321.317 328.599 321.317C333.396 321.317 338.001 323.205 341.418 326.572C344.834 329.938 346.79 334.514 346.86 339.311Z" fill="#FF7235"/>
<path d="M237.521 298.039H271.68C272.079 292.063 273.21 283.72 274.601 272.262C277.533 248.066 279.732 226.07 276.8 208.476C273.868 190.882 248.003 130.388 248.003 130.388H199.289C195.464 163.396 227.409 200.93 237.576 216.52C248.572 233.385 239.409 244.381 233.544 260.875C227.68 277.369 237.576 284.338 237.576 284.338C237.273 288.899 237.254 293.475 237.521 298.039Z" fill="#4856DF"/>
<path d="M243.042 325.434H291.139C287.74 317.466 277.318 313.525 273.868 310.386C271.744 308.458 271.25 304.697 271.68 298.035H237.521C238.266 310.784 241.106 320.278 243.042 325.434Z" fill="#30242A"/>
<path d="M244.907 329.816H292.198C292.096 328.306 291.737 326.824 291.139 325.434H243.042C243.585 326.927 244.207 328.39 244.907 329.816Z" fill="#A32926"/>
<path d="M250.804 285.621V297.613" stroke="#A32926" stroke-width="4" stroke-miterlimit="10" stroke-linecap="round"/>
<path d="M242.525 285.621V297.613" stroke="#A32926" stroke-width="4" stroke-miterlimit="10" stroke-linecap="round"/>
<path d="M259.083 285.621V297.613" stroke="#A32926" stroke-width="4" stroke-miterlimit="10" stroke-linecap="round"/>
<path d="M267.362 285.621V297.613" stroke="#A32926" stroke-width="4" stroke-miterlimit="10" stroke-linecap="round"/>
<path d="M237.664 285.254H272.724" stroke="#A32926" stroke-width="4" stroke-miterlimit="10" stroke-linecap="round"/>
<path d="M259.676 158.742C258.481 155.786 257.342 152.926 256.246 150.236L238.317 147.089V147.153C237.963 149.169 238.424 151.244 239.6 152.92C240.775 154.597 242.568 155.738 244.584 156.093L259.676 158.742Z" fill="#A32926"/>
<path d="M266.266 307.9L271.927 305.581" stroke="white" stroke-width="4" stroke-linecap="round" stroke-linejoin="round"/>
<path d="M269.19 313.382L273.92 309.565" stroke="white" stroke-width="4" stroke-linecap="round" stroke-linejoin="round"/>
<path d="M327.992 74.5024C327.992 74.5024 334.263 74.7495 334.765 69.2713C334.765 69.2713 339.243 67.2115 338.071 63.1198C338.071 63.1198 342.167 61.9485 340.996 57.8528C340.92 57.5939 343.323 57.1277 343.203 53.7532C343.028 48.8289 339.689 45.283 338.231 44.9164C333.848 43.8208 335.514 50.9404 335.306 50.7611C332.753 48.5699 329.024 47.5738 327.693 48.6894C325.374 50.6336 326.984 53.2313 326.984 53.2313C326.984 53.2313 324.012 52.5301 322.557 54.6775C320.788 57.2831 323.952 59.7134 323.952 59.7134C323.952 59.7134 320.637 60.084 321.191 63.1517C321.804 66.582 326.956 67.347 329.398 70.9406L327.992 74.5024Z" fill="#EAA58B"/>
<path d="M323.816 59.084C327.306 60.3948 333.378 63.2992 335.103 68.0921" stroke="#A15842" stroke-width="4" stroke-linecap="round" stroke-linejoin="round"/>
<path d="M327.729 52.9883C330.717 54.6178 335.996 57.9644 338.374 62.331" stroke="#A15842" stroke-width="4" stroke-linecap="round" stroke-linejoin="round"/>
<path d="M335.872 50.2002C337.836 51.9452 339.968 54.268 341.271 56.9732" stroke="#A15842" stroke-width="4" stroke-linecap="round" stroke-linejoin="round"/>
<path d="M210.747 59.168C210.747 59.168 223.839 78.8853 220.245 97.8855C217.688 111.4 187.006 123.109 169.109 127.093V116.511C169.109 116.511 206.365 107.384 210.747 90.9452C213.405 80.9849 202.711 59.168 202.711 59.168" fill="#F5EBDD"/>
<path d="M297.31 123.109C295.119 117.626 288.179 111.786 280.143 108.861C264.7 103.248 227.182 111.419 227.182 111.419L221.56 99.415L193.899 112.961C197.883 120.734 202.664 127.268 207.548 131.786C209.211 129.727 211.443 128.201 213.966 127.4C216.488 126.598 219.191 126.555 221.738 127.277C224.284 127.999 226.563 129.453 228.29 131.458C230.017 133.464 231.117 135.933 231.453 138.559C246.748 137.364 263.664 130.372 268.461 126.057C268.461 126.057 271.382 128.615 274.669 128.977C274.669 130.073 269.557 144.682 278.688 141.396C278.688 141.396 281.242 144.682 284.896 141.033C284.896 141.033 287.454 144.682 291.107 141.396C291.107 141.396 293.099 142.643 295.852 139.571C299.135 135.858 300.107 130.077 297.31 123.109Z" fill="#EAA58B"/>
<path d="M202.711 59.168H201.807C194.393 59.168 182.253 64.6501 183.715 78.8495C184.999 90.7358 188.449 102.286 193.895 112.93L221.556 99.3836L202.711 59.168Z" fill="#5D5A6F"/>
<path d="M218.054 126.738C216.04 126.737 214.05 127.187 212.232 128.055C210.414 128.923 208.814 130.187 207.548 131.754C208.56 132.699 209.624 133.586 210.735 134.412C215.879 138.173 223.437 139.137 231.453 138.511C231.032 135.256 229.439 132.265 226.973 130.099C224.507 127.932 221.337 126.737 218.054 126.738Z" fill="#CA7358"/>
<path d="M279.007 140.783C280.601 137.595 284.218 129.332 281.605 123.818" stroke="#A15842" stroke-width="4" stroke-linecap="round" stroke-linejoin="round"/>
<path d="M217.688 112.495L226.297 110.73" stroke="#A15842" stroke-width="4" stroke-linecap="round" stroke-linejoin="round"/>
<path d="M285.473 140.639C287.131 137.277 290.716 129.169 288.179 123.818" stroke="#A15842" stroke-width="4" stroke-linecap="round" stroke-linejoin="round"/>
<path d="M291.848 141.038C293.442 137.826 296.983 129.3 294.39 123.818" stroke="#A15842" stroke-width="4" stroke-linecap="round" stroke-linejoin="round"/>
</svg>
