<svg width="272" height="342" viewBox="0 0 272 342" fill="none" xmlns="http://www.w3.org/2000/svg">
<path d="M76.5694 182.492H67.3008V340.024H76.5694V182.492Z" fill="#FFBE21"/>
<path d="M76.5732 184.659H67.3008" stroke="#A32926" stroke-width="4" stroke-miterlimit="10"/>
<path d="M25.2414 308.415C26.1803 305.722 27.9337 303.389 30.2585 301.737C32.5833 300.086 35.3643 299.198 38.2159 299.198C41.0676 299.198 43.8486 300.086 46.1734 301.737C48.4982 303.389 50.2516 305.722 51.1905 308.415C52.0865 305.844 53.7261 303.598 55.901 301.96C58.0759 300.323 60.6882 299.369 63.4065 299.218C62.1929 297.055 60.7478 295.031 59.0967 293.18L54.1077 287.568C52.5566 285.825 51.5798 283.646 51.3097 281.329C51.0397 279.011 51.4895 276.666 52.5981 274.613L56.8324 266.744C55.6436 267.94 48.7714 274.375 38.3405 274.375C27.9095 274.375 21.0373 267.94 19.8485 266.744H19.8297L24.0677 274.613C25.1715 276.67 25.6144 279.018 25.3362 281.336C25.0579 283.654 24.0721 285.83 22.5129 287.568L17.5276 293.157C15.8735 295.008 14.4247 297.033 13.2065 299.196C15.8956 299.383 18.4702 300.357 20.6101 301.996C22.7499 303.635 24.3605 305.868 25.2414 308.415Z" fill="#4756DF"/>
<path d="M64.1649 316.366C61.3124 316.367 58.5308 317.255 56.2059 318.908C53.881 320.56 52.1281 322.896 51.1904 325.59C50.2532 322.895 48.5005 320.559 46.1755 318.906C43.8505 317.253 41.0685 316.365 38.2158 316.365C35.3631 316.365 32.5811 317.253 30.2561 318.906C27.9311 320.559 26.1784 322.895 25.2413 325.59C24.1065 322.334 21.7899 319.623 18.7507 317.995C15.7114 316.368 12.1715 315.941 8.83252 316.8C9.02423 325.509 12.5339 333.816 18.6446 340.025H57.9644C64.0627 333.83 67.5714 325.544 67.7765 316.853C66.5997 316.53 65.3851 316.367 64.1649 316.366Z" fill="#4756DF"/>
<path d="M38.3103 274.39C48.7412 274.39 55.6134 267.955 56.8022 266.759H19.8184C21.0071 267.944 27.8793 274.39 38.3103 274.39Z" fill="#37226C"/>
<path d="M25.2414 325.59C26.1786 322.895 27.9313 320.559 30.2563 318.907C32.5813 317.254 35.3633 316.365 38.216 316.365C41.0687 316.365 43.8507 317.254 46.1757 318.907C48.5007 320.559 50.2534 322.895 51.1905 325.59C52.3347 322.3 54.6862 319.567 57.769 317.945C60.8519 316.323 64.4358 315.933 67.7955 316.853C67.9506 310.687 66.4367 304.594 63.4141 299.218C60.6958 299.368 58.0835 300.323 55.9086 301.96C53.7337 303.598 52.0941 305.844 51.1981 308.415C50.2592 305.722 48.5058 303.388 46.181 301.737C43.8562 300.085 41.0752 299.198 38.2235 299.198C35.3719 299.198 32.5908 300.085 30.2661 301.737C27.9413 303.388 26.1879 305.722 25.249 308.415C24.3626 305.874 22.7497 303.649 20.6103 302.016C18.4709 300.383 15.8992 299.414 13.2141 299.229C10.205 304.587 8.69412 310.657 8.84025 316.8C12.1792 315.941 15.7192 316.368 18.7584 317.996C21.7976 319.624 24.1142 322.334 25.249 325.59H25.2414Z" fill="#3EC1F3"/>
<path d="M41.0498 273.31C41.8046 268.691 45.235 250.38 53.8621 240.429" stroke="#37226C" stroke-width="4" stroke-miterlimit="10" stroke-linecap="round"/>
<path d="M37.0685 273.443C37.0119 268.197 36.4722 242.44 31.3511 227.073" stroke="#37226C" stroke-width="4" stroke-miterlimit="10" stroke-linecap="round"/>
<path d="M59.7666 255.42C67.3307 252.092 72.8557 248.014 72.1069 246.313C71.3582 244.611 64.6192 245.929 57.055 249.258C49.4909 252.586 43.9659 256.664 44.7147 258.365C45.4634 260.067 52.2024 258.748 59.7666 255.42Z" fill="#37226C"/>
<path d="M59.7622 208.599C62.4816 204.923 63.647 201.174 62.3651 200.226C61.0832 199.278 57.8396 201.489 55.1202 205.166C52.4008 208.842 51.2354 212.591 52.5173 213.539C53.7992 214.487 57.0429 212.276 59.7622 208.599Z" fill="#37226C"/>
<path d="M18.8086 258.034C28.6696 256.542 36.45 253.922 36.1866 252.18C35.9233 250.439 27.7159 250.236 17.8549 251.727C7.99391 253.219 0.213496 255.839 0.476856 257.581C0.740216 259.322 8.94762 259.525 18.8086 258.034Z" fill="#37226C"/>
<path d="M11.9197 232.312V232.338C13.3767 233.153 14.4756 234.484 14.9997 236.069C15.5239 237.653 15.4352 239.377 14.7513 240.9C14.0673 242.423 12.8377 243.634 11.3048 244.295C9.77195 244.956 8.04706 245.019 6.47021 244.471V244.494C14.735 248.207 22.6638 248.49 24.1734 245.128C25.6829 241.765 20.1882 236.025 11.9197 232.312Z" fill="#FF7235"/>
<path d="M36.3552 205.396C34.5966 204.94 32.3097 207.6 30.6378 211.718C28.6264 206.717 25.7092 203.37 23.743 204.019C21.7768 204.668 21.4258 209.091 22.7882 214.306C18.9917 211.997 15.5726 211.219 14.4291 212.635C12.9724 214.438 15.7802 219.118 20.7013 223.092C22.1013 224.233 23.6077 225.236 25.1997 226.088C25.4711 225.01 26.0074 224.017 26.7601 223.199C27.5127 222.381 28.4578 221.765 29.5095 221.405C30.5612 221.045 31.6861 220.953 32.7821 221.138C33.8781 221.324 34.9105 221.78 35.7854 222.465C36.523 220.878 37.1117 219.226 37.544 217.529C39.1328 211.412 38.6007 205.977 36.3552 205.396Z" fill="#FF7235"/>
<path d="M74.7202 233.176C74.1767 231.44 70.7086 230.911 66.3309 231.666C69.5085 227.315 70.8067 223.069 69.2179 221.745C67.6291 220.42 63.6854 222.462 59.9795 226.375C59.9342 221.93 58.7832 218.616 56.9793 218.394C54.681 218.111 52.1902 222.971 51.4204 229.243C51.1922 231.037 51.1366 232.848 51.2543 234.651C52.3131 234.31 53.4404 234.239 54.5336 234.445C55.6268 234.65 56.6514 235.126 57.5139 235.828C58.3765 236.531 59.0497 237.438 59.4724 238.467C59.8951 239.496 60.0539 240.614 59.9342 241.72C61.6723 241.5 63.3865 241.121 65.0553 240.588C71.0822 238.712 75.4108 235.387 74.7202 233.176Z" fill="#FF7235"/>
<path d="M57.5643 235.866C56.7013 235.146 55.6702 234.656 54.567 234.442C53.4638 234.227 52.3243 234.295 51.2544 234.64C51.4695 237.625 52.2243 239.923 53.3602 240.757C54.4207 241.738 56.8737 242.066 59.9267 241.708C60.0457 240.615 59.8923 239.509 59.4801 238.49C59.0678 237.471 58.4097 236.569 57.5643 235.866Z" fill="#37226C"/>
<path d="M29.5774 221.382C28.5103 221.734 27.5495 222.35 26.7842 223.173C26.0188 223.996 25.4738 224.998 25.1997 226.088C27.8414 227.484 30.1888 228.051 31.5096 227.537C32.9022 227.16 34.4759 225.247 35.7854 222.465C34.9204 221.786 33.9008 221.332 32.8176 221.143C31.7343 220.954 30.6212 221.036 29.5774 221.382Z" fill="#37226C"/>
<path d="M12.6552 243.516C11.9455 243.121 11.4103 242.473 11.1557 241.701C10.901 240.93 10.9453 240.09 11.2799 239.35C11.6146 238.61 12.215 238.022 12.9625 237.703C13.7099 237.384 14.5498 237.358 15.3157 237.629C15.2271 236.537 14.8709 235.484 14.2785 234.562C13.6861 233.641 12.8758 232.88 11.9193 232.346L6.4585 244.471C7.49061 244.832 8.59543 244.933 9.67589 244.766C10.7564 244.6 11.7794 244.171 12.6552 243.516Z" fill="#F5EBDD"/>
<path d="M11.2664 239.354C10.9372 240.094 10.8972 240.931 11.1543 241.699C11.4113 242.467 11.9468 243.112 12.6552 243.505C13.5622 242.83 14.2825 241.936 14.748 240.906C15.2135 239.876 15.4089 238.744 15.3157 237.618C14.5462 237.344 13.7016 237.37 12.9508 237.692C12.2 238.014 11.5985 238.607 11.2664 239.354Z" fill="#4856DF"/>
<path d="M260.666 245.445H164.686L166.308 239.006H208.44L224.509 176.164C226.698 167.604 231.674 160.016 238.653 154.598C245.632 149.179 254.216 146.238 263.051 146.237C284.672 146.237 300.492 166.616 295.129 187.561L285.2 226.39C283.807 231.839 280.639 236.67 276.197 240.12C271.755 243.57 266.291 245.443 260.666 245.445Z" fill="#5D5A6F"/>
<path d="M165.429 304.917V311.732H226.599V304.917H165.429Z" fill="#A32926"/>
<path d="M236.676 336.364L220.765 241.659H171.26L155.349 336.364C155.274 336.815 155.298 337.276 155.419 337.716C155.54 338.157 155.756 338.565 156.051 338.914C156.347 339.262 156.714 339.542 157.129 339.734C157.543 339.926 157.994 340.025 158.451 340.025C159.169 340.024 159.864 339.778 160.423 339.328C160.982 338.878 161.37 338.25 161.523 337.549L182.362 241.659H209.677L230.509 337.549C230.662 338.251 231.05 338.879 231.608 339.329C232.167 339.779 232.863 340.025 233.581 340.025C234.037 340.024 234.488 339.924 234.901 339.731C235.315 339.539 235.681 339.259 235.976 338.911C236.27 338.562 236.485 338.154 236.606 337.715C236.727 337.275 236.751 336.814 236.676 336.364Z" fill="#A32926"/>
<path d="M216.104 304.917V311.732H277.275V304.917H216.104Z" fill="#FFBE21"/>
<path d="M287.351 336.364L271.425 241.659H221.939L206.028 336.364C205.953 336.815 205.977 337.276 206.098 337.716C206.22 338.157 206.435 338.565 206.731 338.914C207.026 339.262 207.394 339.542 207.808 339.734C208.222 339.926 208.674 340.025 209.13 340.025C209.848 340.025 210.543 339.779 211.101 339.329C211.66 338.878 212.047 338.25 212.198 337.549L233.03 241.659H260.349L281.181 337.549C281.333 338.251 281.722 338.88 282.282 339.33C282.841 339.781 283.538 340.026 284.257 340.025C284.713 340.024 285.163 339.924 285.576 339.731C285.99 339.539 286.357 339.259 286.651 338.911C286.945 338.562 287.161 338.154 287.281 337.715C287.402 337.275 287.426 336.814 287.351 336.364Z" fill="#FFBE21"/>
<path d="M237.351 226.39L243.42 202.656H203.202C195.315 202.656 187.653 205.282 181.423 210.118C175.193 214.955 170.75 221.727 168.795 229.368L164.686 245.444H212.814C218.439 245.444 223.904 243.571 228.347 240.121C232.789 236.671 235.958 231.84 237.351 226.39Z" fill="#5D5A6F"/>
<path d="M167.301 238.376H218.361" stroke="#A32926" stroke-width="4" stroke-linecap="round" stroke-linejoin="round"/>
<path d="M208.621 238.138L217.568 203.154" stroke="#A32926" stroke-width="4" stroke-linecap="round" stroke-linejoin="round"/>
<path d="M290.672 201.845H266.52" stroke="#A32926" stroke-width="4" stroke-linecap="round" stroke-linejoin="round"/>
<path d="M295.201 184.862H264.255" stroke="#A32926" stroke-width="4" stroke-linecap="round" stroke-linejoin="round"/>
<path d="M182.479 177.194C182.479 177.194 152.201 185.44 139.34 191.874C118.135 202.475 118.206 209.472 105.277 248.641C93.3404 284.839 92.0271 302.384 75.5617 303.078C62.991 303.607 58.8699 307.72 56.832 313.359L106.575 336.96C107.145 337.23 107.797 337.272 108.397 337.077C108.997 336.882 109.5 336.465 109.802 335.911C110.11 335.345 110.185 334.681 110.011 334.061C109.837 333.441 109.427 332.913 108.87 332.59L107.824 331.986C112.447 326.386 121.365 314.453 130.256 296.327L135.917 298.969C135.917 298.969 145.061 287.085 146.51 273.605C148.397 256.196 147.265 244.463 155.217 237.651L247.94 177.179L182.479 177.194Z" fill="#FF7235"/>
<path d="M70.6748 305.875C71.6598 303.826 77.1319 291.342 80.2793 292.852C84.3739 294.814 73.7467 307.347 73.7467 307.347L70.6748 305.875Z" fill="#37226C"/>
<path d="M56.8286 313.536L106.572 337.134C107.148 337.409 107.808 337.45 108.413 337.248C109.019 337.047 109.523 336.619 109.82 336.054C110.116 335.49 110.183 334.832 110.005 334.219C109.828 333.606 109.419 333.086 108.866 332.767L107.821 332.164L107.927 332.035L73.7355 315.895C74.2478 314.475 74.6071 313.005 74.8073 311.509C79.9247 312.396 90.2801 313.351 90.333 309.083C90.3896 305.105 79.0793 306.701 74.9469 307.826C74.8578 306.297 74.5608 304.787 74.0638 303.339C62.663 304.124 58.7835 308.124 56.8286 313.536Z" fill="#37226C"/>
<path d="M139.34 191.874C136.959 193.063 134.849 194.206 132.959 195.354L130.057 204.649L141.227 196.78L151.526 204.992L147.73 193.735L159.395 188.391L150.379 187.259C146.62 188.6 142.935 190.141 139.34 191.874Z" fill="#5D5A6F"/>
<path d="M172.252 187.036L171.497 191.953L176.418 190.063L172.252 187.036Z" fill="#5D5A6F"/>
<path d="M143.869 211.635L136.68 221.096L126.46 216.179L132.513 226.394L123.052 234.342L135.163 232.829L139.329 246.834L143.491 232.829L156.738 229.044L143.869 223.745V211.635Z" fill="#5D5A6F"/>
<path d="M103.451 283.874L104.334 281.353L116.41 280.711L106.598 274.031L110.968 263.566L101.085 270.156L99.1976 268.118C97.6881 273.088 96.3521 277.515 95.0464 281.405H95.1068C95.2502 280.979 95.3936 280.549 95.537 280.111L103.451 283.874Z" fill="#5D5A6F"/>
<path d="M103.451 283.873L95.5255 280.126C95.3821 280.564 95.2387 280.994 95.0953 281.42C90.3063 295.686 85.9437 302.818 75.5694 303.256C75.0599 303.256 74.5693 303.305 74.0862 303.339C74.5831 304.788 74.8802 306.297 74.9693 307.826C79.1206 306.694 90.412 305.105 90.3554 309.083C90.295 313.351 79.947 312.396 74.8297 311.509C74.6258 313.006 74.2627 314.476 73.7466 315.895L107.938 332.035C112.587 326.375 121.429 314.502 130.253 296.527L103.451 283.873Z" fill="#EAA58B"/>
<path d="M133.649 255.158L132.517 265.378L121.92 265L131.004 271.816L127.607 283.926L136.698 275.975L144.869 281.424C145.095 280.702 145.303 279.971 145.491 279.232L142.359 271.431L147.212 266.114C147.292 265.125 147.367 264.151 147.439 263.204L138.963 264.619L133.649 255.158Z" fill="#5D5A6F"/>
<path d="M110.044 233.915C109.089 236.866 108.062 240.07 106.93 243.553L116.999 244.169L110.044 233.915Z" fill="#5D5A6F"/>
<path d="M145.597 326.111C145.756 323.846 146.25 310.223 149.73 310.468C154.258 310.785 148.994 326.349 148.994 326.349L145.597 326.111Z" fill="#37226C"/>
<path d="M229.411 177.749C229.411 177.749 191.563 184.768 170.746 193.471C149.73 202.26 149.933 217.869 153.715 260.268C157.111 298.226 163.18 316.657 150.696 322.333C139.246 327.541 135.268 334.07 135.812 340.04H192.174C192.492 340.04 192.806 339.978 193.1 339.856C193.393 339.734 193.66 339.556 193.885 339.332C194.109 339.107 194.288 338.84 194.409 338.547C194.531 338.253 194.593 337.939 194.593 337.621C194.593 336.98 194.338 336.364 193.885 335.911C193.431 335.457 192.816 335.202 192.174 335.202H191.223C193.001 329.387 195.578 318.035 195.933 299.248H202.922C202.922 299.248 206.515 282.644 202.545 267.835C198.393 252.321 194.597 249.671 192.329 239.074H226.245C252.145 239.074 271.531 215.118 265.897 189.84C264.138 181.942 261.587 177.764 261.587 177.764L229.411 177.749Z" fill="#FF7235"/>
<path d="M205.945 199.901L198.997 208.642L188.177 204.924L194.589 215.419L186.264 226.775L197.239 222.231L203.356 233.508L204.05 221.095L214.647 218.827L205.567 213.148L205.945 199.901Z" fill="#5D5A6F"/>
<path d="M190.827 267.37L197.243 277.865L188.917 289.221L199.892 284.692L203.96 292.191C204.556 286.364 204.851 277.744 202.949 269.468L201.65 271.102L190.827 267.37Z" fill="#5D5A6F"/>
<path d="M162.531 299.233L162.044 293.383L174.332 288.643L162.701 286.232L163.984 273.465L156.436 283.341L156.209 283.247C156.934 289.341 157.568 294.666 157.923 299.274V299.233H162.531Z" fill="#5D5A6F"/>
<path d="M192.174 335.187H191.223C193.001 329.371 195.578 318.02 195.933 299.233H157.911V299.267C157.941 299.645 157.968 300.022 157.994 300.4C157.994 300.433 157.994 300.471 157.994 300.505C158.783 312.299 157.496 319.197 150.681 322.295C139.231 327.503 135.253 334.032 135.796 340.002H192.174C192.816 340.002 193.431 339.748 193.885 339.294C194.338 338.84 194.593 338.225 194.593 337.583C194.593 336.942 194.338 336.327 193.885 335.873C193.431 335.419 192.816 335.164 192.174 335.164V335.187Z" fill="#EAA58B"/>
<path d="M242.638 178.727L225.252 180.266L227.063 187.255L215.942 193.188L229.796 195.041L234.483 205.423L239.302 194.671L253.394 192.445L241.155 186.142L242.638 178.727Z" fill="#5D5A6F"/>
<path d="M159.772 227.908L163.923 214.661L176.033 216.548L166.572 208.223L173.365 200.275L160.877 204.804L158.881 201.381C155.669 205.019 153.73 209.536 152.692 215.344L154.82 215.412L159.772 227.908Z" fill="#5D5A6F"/>
<path d="M192.174 186.354C189.619 187.063 187.075 187.806 184.592 188.573L194.597 195.365L192.174 186.354Z" fill="#5D5A6F"/>
<path d="M175.668 247.588L170.369 236.613L167.72 248.724L157.881 247.969L166.961 255.917L161.285 269.163L171.139 259.977L179.306 269.393L176.803 255.158L185.129 244.184L175.668 247.588Z" fill="#5D5A6F"/>
<path d="M153.201 330.76C158.205 329.379 167.972 325.824 166.206 321.94C164.561 318.317 155.013 324.582 151.756 327.371C150.934 325.862 149.884 324.49 148.643 323.303C138.763 328.333 135.294 334.424 135.811 340.025H192.174C192.816 340.025 193.431 339.77 193.885 339.316C194.338 338.862 194.593 338.247 194.593 337.606C194.593 336.964 194.338 336.349 193.885 335.895C193.431 335.441 192.816 335.187 192.174 335.187H154.096C153.954 333.684 153.654 332.2 153.201 330.76Z" fill="#37226C"/>
<path d="M192.174 239.908L182.43 239.772" stroke="#A32926" stroke-width="4" stroke-miterlimit="10" stroke-linecap="round"/>
<path d="M199.42 184.7C189.325 187.274 178.536 190.433 170.361 193.844C152.926 201.147 150.099 213.132 151.794 241.24" stroke="#A32926" stroke-width="4" stroke-miterlimit="10" stroke-linecap="round"/>
<path d="M193.076 64.0353C187.793 63.2806 175.69 68.9602 175.29 80.1875C174.89 91.4147 184.913 95.0225 186.517 95.8263L209.776 92.2148L211.379 66.5525L193.076 64.0353Z" fill="#A32926"/>
<path d="M234.166 36.1536C244.15 36.1536 252.243 28.0603 252.243 18.0768C252.243 8.09326 244.15 0 234.166 0C224.183 0 216.089 8.09326 216.089 18.0768C216.089 28.0603 224.183 36.1536 234.166 36.1536Z" fill="#A32926"/>
<path d="M222.441 30.508C223.543 31.0175 214.263 8.99701 209.527 12.4312C205.07 15.673 216.844 27.9267 222.441 30.508Z" fill="#37226C"/>
<path d="M222.954 31.8548C223.965 33.0624 247.642 24.7788 244.367 20.0011C241.234 15.4045 221.943 30.6433 222.954 31.8548Z" fill="#37226C"/>
<path d="M254.386 92.4182C254.386 92.4182 270.282 79.1719 260.047 64.4123C253.533 55.0041 235.823 58.7515 235.823 58.7515C236.253 53.5851 237.657 38.701 226.464 30.5231C215.27 22.3451 201.069 26.6511 195.895 33.1044C190.721 39.5577 192.023 51.6152 190.302 60.2233C188.582 68.8315 189.729 74.6848 195.035 77.4397C199.862 79.9455 205.541 78.4322 205.541 78.4322L204.937 87.5159C204.937 87.5159 193.993 87.9273 187.287 90.3539C171.127 96.2033 142.737 136.319 142.737 136.319C124.95 135.565 108.296 134.81 108.296 134.81L117.003 160.548C117.003 160.548 138.951 167.737 154.847 163.567C170.973 159.344 186.261 136.697 186.261 136.697L191.544 151.834L182.46 177.19H261.56L248.314 153.725C250.605 132.915 254.386 92.4182 254.386 92.4182Z" fill="#EAA58B"/>
<path d="M228.969 86.5723L208.213 124.209L199.722 87.8931C195.99 88.2705 191.016 89.0026 187.325 90.3386C171.127 96.2032 142.737 136.319 142.737 136.319C124.95 135.565 108.296 134.81 108.296 134.81L117.003 160.547C117.003 160.547 138.951 167.737 154.847 163.567C170.973 159.344 186.261 136.697 186.261 136.697L191.544 151.834L182.46 177.19H261.56L248.314 153.728C250.579 132.912 254.352 92.4142 254.352 92.4142C250.848 90.2809 247.011 88.7501 243.001 87.8856C238.483 86.8666 233.517 87.4742 228.969 86.5723Z" fill="#4756DF"/>
<path d="M121.478 174.544H187.023L172.12 127.477C171.682 126.09 170.813 124.878 169.64 124.018C168.466 123.159 167.05 122.695 165.595 122.695H110.202C109.126 122.695 108.065 122.948 107.105 123.435C106.144 123.921 105.313 124.627 104.677 125.496C104.041 126.364 103.619 127.371 103.446 128.433C103.272 129.495 103.351 130.583 103.677 131.609L115.995 170.533C116.365 171.697 117.095 172.714 118.081 173.435C119.067 174.156 120.257 174.545 121.478 174.544Z" fill="#37226C"/>
<path d="M131.245 143.988C132.985 141.61 140.876 147.89 141.457 148.407C141.759 147.89 145.869 141.614 148.88 143.988C151.496 146.048 145.748 155.253 144.22 157.6C144.155 157.671 144.077 157.728 143.99 157.767C143.902 157.806 143.808 157.826 143.712 157.826C143.616 157.826 143.522 157.806 143.434 157.767C143.347 157.728 143.268 157.671 143.204 157.6C140.415 155.253 129.735 146.048 131.245 143.988Z" fill="#A32926"/>
<path d="M140.807 145.58C141.466 145.375 141.491 143.574 140.863 141.558C140.235 139.543 139.192 138.075 138.533 138.28C137.875 138.485 137.85 140.286 138.478 142.301C139.106 144.317 140.148 145.785 140.807 145.58Z" fill="#A32926"/>
<path d="M225.082 169.247C225.272 169.855 225.316 170.5 225.211 171.129C225.106 171.758 224.854 172.354 224.477 172.868C224.099 173.382 223.606 173.8 223.038 174.089C222.469 174.378 221.84 174.529 221.203 174.53H121.478C120.257 174.53 119.067 174.142 118.081 173.42C117.095 172.699 116.364 171.683 115.995 170.518L115.587 169.231L225.082 169.247Z" fill="#37226C"/>
<path d="M343.506 174.545H51.3301V184.006H343.506V174.545Z" fill="#FFBE21"/>
<path d="M285.196 226.39L291.264 202.656H255.866C247.979 202.657 240.318 205.282 234.089 210.119C227.859 214.955 223.417 221.727 221.463 229.368L217.35 245.444H260.655C266.28 245.444 271.746 243.571 276.189 240.121C280.633 236.671 283.802 231.84 285.196 226.39Z" fill="#5D5A6F"/>
<path d="M218.187 239.222L216.787 245.139" stroke="#A32926" stroke-width="4" stroke-linecap="round" stroke-linejoin="round"/>
<path d="M105.141 136.172C100.737 138.372 98.5371 142.04 98.5371 144.61C98.5371 148.361 102.356 149.067 102.356 149.067C102.356 149.067 99.507 153.547 104.462 155.649C104.462 155.649 104.462 160.26 109.078 160.26C109.078 160.26 108.466 163.857 113.282 164.197C118.097 164.536 123.052 162.023 123.471 160.396C123.95 158.475 122.656 156.868 119.161 156.358C119.161 156.358 123.879 154.154 123.131 151.373C122.384 148.592 119.195 148.656 119.195 148.656C119.195 148.656 122.248 146.825 120.618 144.127C118.988 141.429 115.87 142.365 115.87 142.365C115.87 142.365 116.686 140.478 115.259 139.04C113.561 137.342 106.258 139.485 106.258 139.485L105.141 136.172Z" fill="#EAA58A"/>
<path d="M109.111 160.438C113.085 159.486 116.941 158.093 120.606 156.287" stroke="#A32926" stroke-width="4" stroke-miterlimit="10" stroke-linecap="round"/>
<path d="M104.451 155.626C109.961 154.115 115.221 151.811 120.067 148.784" stroke="#A32926" stroke-width="4" stroke-miterlimit="10" stroke-linecap="round"/>
<path d="M101.979 149.603C107.085 148.092 111.909 145.756 116.259 142.686" stroke="#A32926" stroke-width="4" stroke-miterlimit="10" stroke-linecap="round"/>
<path d="M260.066 64.4123C253.553 55.0041 235.842 58.7515 235.842 58.7515C236.272 53.5851 237.676 38.701 226.483 30.523C215.289 22.3451 201.088 26.6511 195.914 33.1044C193.809 35.7461 192.778 39.301 192.178 43.1806C195.612 43.758 200.651 42.5768 200.651 42.5768C207.538 50.3245 213.708 51.5548 213.708 51.5548C218.527 46.7356 226.981 46.8941 228.354 54.1965C229.781 61.7782 217.671 65.186 217.671 65.186C217.671 65.186 216.538 78.8096 222.577 83.7307C224.43 85.1996 226.621 86.1817 228.951 86.5875C233.479 87.4895 238.465 86.8819 243.016 87.8933C247.026 88.7578 250.863 90.2886 254.368 92.4219C255.75 91.2036 257.014 89.8566 258.142 88.399C262.112 83.3647 266.859 74.2244 260.066 64.4123Z" fill="#A32926"/>
<path d="M207.836 39.8145C205.572 41.7014 202.93 42.8335 199.888 43.5883" stroke="#EAA58B" stroke-width="4" stroke-miterlimit="10" stroke-linecap="round"/>
<path d="M205.417 79.2809C207.174 78.6947 208.869 77.9362 210.477 77.0166" stroke="#A32926" stroke-width="4" stroke-miterlimit="10" stroke-linecap="round"/>
<path d="M218.135 57.574L221.577 55.4229" stroke="#A32926" stroke-width="4" stroke-miterlimit="10" stroke-linecap="round"/>
<path d="M198.386 67.6763C199.099 68.1179 201.783 68.4613 202.847 66.4121" stroke="#A32926" stroke-width="4" stroke-miterlimit="10" stroke-linecap="round"/>
<path d="M205.398 57.9925C206.111 57.9925 206.689 57.4146 206.689 56.7018C206.689 55.989 206.111 55.4111 205.398 55.4111C204.685 55.4111 204.107 55.989 204.107 56.7018C204.107 57.4146 204.685 57.9925 205.398 57.9925Z" fill="#37226C"/>
<path d="M194.699 56.2835C195.412 56.2835 195.99 55.7056 195.99 54.9928C195.99 54.28 195.412 53.7021 194.699 53.7021C193.986 53.7021 193.408 54.28 193.408 54.9928C193.408 55.7056 193.986 56.2835 194.699 56.2835Z" fill="#37226C"/>
<path d="M198.333 59.9775C198.077 60.7889 197.854 61.672 198.001 61.9664C198.203 62.3394 198.51 62.645 198.884 62.8457" stroke="#A32926" stroke-width="4" stroke-miterlimit="10" stroke-linecap="round"/>
<path d="M219.754 70.2199C222.25 70.2199 224.275 68.1958 224.275 65.6988C224.275 63.2019 222.25 61.1777 219.754 61.1777C217.257 61.1777 215.232 63.2019 215.232 65.6988C215.232 68.1958 217.257 70.2199 219.754 70.2199Z" fill="#F5EBDD"/>
<path d="M198.004 55.7181C198.787 51.6979 196.487 47.8681 192.867 47.164C189.248 46.4598 185.68 49.148 184.898 53.1681C184.116 57.1883 186.416 61.0181 190.035 61.7222C193.654 62.4264 197.222 59.7382 198.004 55.7181Z" stroke="#37226C" stroke-width="4" stroke-miterlimit="10" stroke-linecap="round"/>
<path d="M214.402 57.7288C215.184 53.7087 212.884 49.8789 209.265 49.1747C205.646 48.4706 202.078 51.1587 201.296 55.1789C200.513 59.199 202.813 63.0288 206.432 63.733C210.052 64.4371 213.62 61.749 214.402 57.7288Z" stroke="#37226C" stroke-width="4" stroke-miterlimit="10" stroke-linecap="round"/>
<path d="M198.314 55.1094L200.922 55.3886" stroke="#37226C" stroke-width="4" stroke-miterlimit="10" stroke-linecap="round"/>
<path d="M236.706 59.25L235.955 64.0805" stroke="#37226C" stroke-width="4" stroke-miterlimit="10" stroke-linecap="round"/>
<path d="M182.102 126.858L185.755 137.489" stroke="#37226C" stroke-width="4" stroke-linecap="round" stroke-linejoin="round"/>
<path d="M201.401 151.079H191.797" stroke="#37226C" stroke-width="4" stroke-linecap="round" stroke-linejoin="round"/>
<path d="M208.972 123.832L211.998 138.592V152.215" stroke="#37226C" stroke-width="4" stroke-linecap="round" stroke-linejoin="round"/>
<path d="M188.842 90.0107L194.59 103.015L187.778 102.261L211.998 138.592" stroke="#37226C" stroke-width="4" stroke-linecap="round" stroke-linejoin="round"/>
<path d="M244.842 88.4629L235.087 102.26L244.17 101.502L210.862 131.021" stroke="#37226C" stroke-width="4" stroke-linecap="round" stroke-linejoin="round"/>
<path d="M249.914 134.726L242.657 124.59" stroke="#37226C" stroke-width="4" stroke-linecap="round" stroke-linejoin="round"/>
<path d="M258.311 172.088C254.36 170.771 247.269 168.228 242.993 165.673" stroke="#37226C" stroke-width="4" stroke-linecap="round" stroke-linejoin="round"/>
<path d="M149.322 78.1833C153.422 78.1833 156.745 74.8598 156.745 70.7601C156.745 66.6604 153.422 63.3369 149.322 63.3369C145.222 63.3369 141.899 66.6604 141.899 70.7601C141.899 74.8598 145.222 78.1833 149.322 78.1833Z" fill="#5D5A6F"/>
<path d="M127.136 41.2185L122.814 36.0071C122.149 35.205 120.96 35.094 120.157 35.7592L120.064 35.8363C119.262 36.5016 119.151 37.6912 119.817 38.4933L124.139 43.7046C124.804 44.5068 125.993 44.6178 126.796 43.9525L126.888 43.8754C127.691 43.2102 127.802 42.0206 127.136 41.2185Z" fill="#4756DF"/>
<path d="M134.91 47.5504L130.562 42.3047L52.4169 107.102C51.7354 107.667 51.3064 108.481 51.2244 109.362C51.1423 110.244 51.4138 111.122 51.9791 111.804L52.0659 111.91C52.3456 112.247 52.6891 112.526 53.0766 112.731C53.4641 112.935 53.8881 113.061 54.3245 113.102C54.7608 113.143 55.2008 113.097 55.6195 112.968C56.0381 112.838 56.4272 112.627 56.7644 112.348L81.1964 92.0819V163.193H88.0157V86.4211L134.91 47.5504Z" fill="#3EC1F3"/>
<path d="M122.316 49.0605L124.494 51.7022C125.252 52.6188 125.829 53.6717 126.192 54.8044" stroke="#4756DF" stroke-width="4" stroke-miterlimit="10"/>
<path d="M84.604 93.6562C89.5165 93.6562 93.499 89.6738 93.499 84.7612C93.499 79.8486 89.5165 75.8662 84.604 75.8662C79.6914 75.8662 75.709 79.8486 75.709 84.7612C75.709 89.6738 79.6914 93.6562 84.604 93.6562Z" fill="#4756DF"/>
<path d="M84.6042 88.18C86.4925 88.18 88.0233 86.6492 88.0233 84.7609C88.0233 82.8726 86.4925 81.3418 84.6042 81.3418C82.7158 81.3418 81.1851 82.8726 81.1851 84.7609C81.1851 86.6492 82.7158 88.18 84.6042 88.18Z" fill="#3EC1F3"/>
<path d="M155.417 66.5449L144.039 75.9494" stroke="#A32926" stroke-width="4" stroke-miterlimit="10"/>
<path d="M140.676 46.6C138.284 46.3189 136.091 45.1269 134.555 43.2715L131.536 39.6222C130.469 38.3375 128.935 37.5289 127.273 37.3739C125.61 37.2189 123.953 37.7303 122.667 38.7957V38.7957C122.031 39.3234 121.505 39.9714 121.119 40.7025C120.733 41.4337 120.495 42.2337 120.418 43.0569C120.341 43.8801 120.427 44.7103 120.671 45.5002C120.916 46.2901 121.313 47.0242 121.841 47.6605L124.86 51.3211C126.39 53.1712 127.15 55.5381 126.985 57.9329L126.23 68.9677C125.856 74.3669 127.226 79.7435 130.14 84.3047L131.106 85.8142L167.308 55.7856L166.01 54.5666C162.07 50.8594 157.042 48.5164 151.669 47.8831L140.676 46.6Z" fill="#3EC1F3"/>
<path d="M88.0155 163.193H81.1962L71.1162 165.941C69.2289 166.456 67.5632 167.577 66.3759 169.132C65.1887 170.687 64.5456 172.589 64.5459 174.545H104.662C104.662 172.588 104.019 170.686 102.831 169.131C101.642 167.576 99.976 166.455 98.088 165.941L88.0155 163.193Z" fill="#3EC1F3"/>
<path d="M160.44 50.4453L127.309 77.8285" stroke="#4756DF" stroke-width="4" stroke-miterlimit="10" stroke-linecap="round"/>
<path d="M81.0303 162.412H88.0157" stroke="#4756DF" stroke-width="4" stroke-miterlimit="10" stroke-linecap="round"/>
<path d="M65.8706 169.827H103.111" stroke="#4756DF" stroke-width="4" stroke-miterlimit="10" stroke-linecap="round"/>
<path d="M280.505 271.903C281.26 265.487 280.883 251.086 272.558 240.112C264.232 229.138 275.577 233.696 278.973 236.715C284.407 241.546 289.193 246.177 293.355 261.695L280.505 271.903Z" fill="#37226C"/>
<path d="M272.648 297.607L282.019 340.025H299.431V337.383C299.431 335.68 298.756 334.046 297.553 332.84C296.351 331.634 294.719 330.954 293.016 330.949C293.016 330.949 301.718 324.424 307.017 317.989C307.017 317.989 316.1 329.058 328.969 327.164L329.901 331.692C330.386 334.043 331.666 336.154 333.525 337.672C335.385 339.19 337.71 340.021 340.11 340.025H382.313C401.031 340.025 410.239 337.168 410.768 326.511C410.784 326.104 410.718 325.699 410.574 325.318C410.429 324.938 410.209 324.591 409.927 324.297C409.645 324.004 409.307 323.771 408.933 323.612C408.558 323.452 408.156 323.37 407.749 323.371H395.967C395.481 323.371 395.001 323.263 394.563 323.053C394.125 322.843 393.739 322.538 393.434 322.159L388.419 315.936C386.932 314.095 384.948 312.719 382.703 311.971C380.457 311.224 378.044 311.137 375.75 311.721L365.663 314.298C365.663 314.298 347.79 288.614 331.6 270.775C316.127 253.743 287.023 251.905 275.558 274.088C271.872 281.347 270.842 289.668 272.648 297.607Z" fill="#A32926"/>
<path d="M243.034 141.018C238.377 140.601 233.695 140.549 229.03 140.863C222.357 141.411 213.387 143.158 209.783 144.901C206.179 146.645 192.378 152.8 196.095 154.864C199.492 156.751 206.617 153.913 206.617 153.913C206.617 153.913 199.507 160.45 198.284 163.186C197.061 165.922 201.103 167.458 201.103 167.458C202.167 172.13 206.93 170.122 206.93 170.122C209.93 176.504 226.139 162.676 226.139 162.676C229.995 163.077 233.889 162.913 237.698 162.19C237.698 162.19 239.751 163.341 243.046 164.941L243.034 141.018Z" fill="#EAA58A"/>
<path d="M283.528 173.031C313.806 158.649 269.916 104.913 254.386 92.418L245.684 127.617L256.658 142.754C251.85 141.923 247.254 141.354 243.035 141.018V164.94C252.643 169.612 272.833 178.126 283.528 173.031Z" fill="#4756DF"/>
<path d="M205.167 154.31C207.854 152.087 212.315 148.494 215.644 146.328" stroke="#A32926" stroke-width="4" stroke-miterlimit="10" stroke-linecap="round"/>
<path d="M219.312 151.638C211.579 156.646 204.533 163.337 201.046 166.839" stroke="#A32926" stroke-width="4" stroke-miterlimit="10" stroke-linecap="round"/>
<path d="M222.743 157.302C217.459 160.928 211.327 166.427 207.323 170.201" stroke="#A32926" stroke-width="4" stroke-miterlimit="10" stroke-linecap="round"/>
</svg>
